
<global>
amp_veltrack=0
ampeg_release=0.8
</global>

<group>
group_label=PP
xf_cccurve=gain
xfin_hicc1=42
xfout_hicc1=84
xfout_locc1=43

<region>
hikey=B2
hivel=127
lokey=A#2
lovel=1
offset=7792
pitch_keycenter=A#2
sample=3Trombones_marcato_eighth_PP_A#2.opus
</region>

<region>
hikey=B3
hivel=127
lokey=A#3
lovel=1
offset=352
pitch_keycenter=A#3
sample=3Trombones_marcato_eighth_PP_A#3.opus
</region>

<region>
hivel=127
key=A#4
lovel=1
offset=249
sample=3Trombones_marcato_eighth_PP_A#4.opus
</region>

<region>
hikey=C#3
hivel=127
lokey=C3
lovel=1
offset=5816
pitch_keycenter=C3
sample=3Trombones_marcato_eighth_PP_C3.opus
</region>

<region>
hikey=C#4
hivel=127
lokey=C4
lovel=1
offset=6144
sample=3Trombones_marcato_eighth_PP_C4.opus
</region>

<region>
hikey=D#3
hivel=127
lokey=D3
lovel=1
offset=5223
pitch_keycenter=D3
sample=3Trombones_marcato_eighth_PP_D3.opus
</region>

<region>
hikey=D#4
hivel=127
lokey=D4
lovel=1
offset=8639
pitch_keycenter=D4
sample=3Trombones_marcato_eighth_PP_D4.opus
</region>

<region>
hikey=F2
hivel=127
lokey=E2
lovel=1
offset=6801
pitch_keycenter=E2
sample=3Trombones_marcato_eighth_PP_E2.opus
</region>

<region>
hikey=F3
hivel=127
lokey=E3
lovel=1
offset=7094
pitch_keycenter=E3
sample=3Trombones_marcato_eighth_PP_E3.opus
</region>

<region>
hikey=F4
hivel=127
lokey=E4
lovel=1
offset=2587
pitch_keycenter=E4
sample=3Trombones_marcato_eighth_PP_E4.opus
</region>

<region>
hikey=G2
hivel=127
lokey=F#2
lovel=1
offset=6590
pitch_keycenter=F#2
sample=3Trombones_marcato_eighth_PP_F#2.opus
</region>

<region>
hikey=G3
hivel=127
lokey=F#3
lovel=1
offset=8210
pitch_keycenter=F#3
sample=3Trombones_marcato_eighth_PP_F#3.opus
</region>

<region>
hikey=G4
hivel=127
lokey=F#4
lovel=1
offset=754
pitch_keycenter=F#4
sample=3Trombones_marcato_eighth_PP_F#4.opus
</region>

<region>
hikey=A2
hivel=127
lokey=G#2
lovel=1
offset=6839
pitch_keycenter=G#2
sample=3Trombones_marcato_eighth_PP_G#2.opus
</region>

<region>
hikey=A3
hivel=127
lokey=G#3
lovel=1
pitch_keycenter=G#3
sample=3Trombones_marcato_eighth_PP_G#3.opus
</region>

<region>
hikey=A4
hivel=127
lokey=G#4
lovel=1
offset=786
pitch_keycenter=G#4
sample=3Trombones_marcato_eighth_PP_G#4.opus
</region>
</group>

<group>
group_label=MF
xf_cccurve=gain
xfin_hicc1=84
xfin_locc1=43
xfout_hicc1=127
xfout_locc1=85

<region>
hikey=B2
hivel=127
lokey=A#2
lovel=1
offset=7376
pitch_keycenter=A#2
sample=3Trombones_marcato_eighth_MF_A#2.opus
</region>

<region>
hikey=B3
hivel=127
lokey=A#3
lovel=1
offset=1077
pitch_keycenter=A#3
sample=3Trombones_marcato_eighth_MF_A#3.opus
</region>

<region>
hivel=127
key=A#4
lovel=1
offset=1215
sample=3Trombones_marcato_eighth_MF_A#4.opus
</region>

<region>
hikey=C#3
hivel=127
lokey=C3
lovel=1
offset=6200
pitch_keycenter=C3
sample=3Trombones_marcato_eighth_MF_C3.opus
</region>

<region>
hikey=C#4
hivel=127
lokey=C4
lovel=1
offset=608
sample=3Trombones_marcato_eighth_MF_C4.opus
</region>

<region>
hikey=D#3
hivel=127
lokey=D3
lovel=1
offset=6088
pitch_keycenter=D3
sample=3Trombones_marcato_eighth_MF_D3.opus
</region>

<region>
hikey=D#4
hivel=127
lokey=D4
lovel=1
offset=204
pitch_keycenter=D4
sample=3Trombones_marcato_eighth_MF_D4.opus
</region>

<region>
hikey=F2
hivel=127
lokey=E2
lovel=1
offset=3707
pitch_keycenter=E2
sample=3Trombones_marcato_eighth_MF_E2.opus
</region>

<region>
hikey=F3
hivel=127
lokey=E3
lovel=1
offset=716
pitch_keycenter=E3
sample=3Trombones_marcato_eighth_MF_E3.opus
</region>

<region>
hikey=F4
hivel=127
lokey=E4
lovel=1
offset=1344
pitch_keycenter=E4
sample=3Trombones_marcato_eighth_MF_E4.opus
</region>

<region>
hikey=G2
hivel=127
lokey=F#2
lovel=1
offset=5454
pitch_keycenter=F#2
sample=3Trombones_marcato_eighth_MF_F#2.opus
</region>

<region>
hikey=G3
hivel=127
lokey=F#3
lovel=1
offset=534
pitch_keycenter=F#3
sample=3Trombones_marcato_eighth_MF_F#3.opus
</region>

<region>
hikey=G4
hivel=127
lokey=F#4
lovel=1
offset=5676
pitch_keycenter=F#4
sample=3Trombones_marcato_eighth_MF_F#4.opus
</region>

<region>
hikey=A2
hivel=127
lokey=G#2
lovel=1
offset=1290
pitch_keycenter=G#2
sample=3Trombones_marcato_eighth_MF_G#2.opus
</region>

<region>
hikey=A3
hivel=127
lokey=G#3
lovel=1
offset=615
pitch_keycenter=G#3
sample=3Trombones_marcato_eighth_MF_G#3.opus
</region>

<region>
hikey=A4
hivel=127
lokey=G#4
lovel=1
offset=340
pitch_keycenter=G#4
sample=3Trombones_marcato_eighth_MF_G#4.opus
</region>
</group>

<group>
group_label=FF
xf_cccurve=gain
xfin_hicc1=127
xfin_locc1=85
xfout_hicc1=127
xfout_locc1=127

<region>
hikey=B2
hivel=127
lokey=A#2
lovel=1
offset=324
pitch_keycenter=A#2
sample=3Trombones_marcato_eighth_FF_A#2.opus
</region>

<region>
hikey=B3
hivel=127
lokey=A#3
lovel=1
offset=322
pitch_keycenter=A#3
sample=3Trombones_marcato_eighth_FF_A#3.opus
</region>

<region>
hivel=127
key=A#4
lovel=1
sample=3Trombones_marcato_eighth_FF_A#4.opus
</region>

<region>
hikey=C#3
hivel=127
lokey=C3
lovel=1
offset=681
pitch_keycenter=C3
sample=3Trombones_marcato_eighth_FF_C3.opus
</region>

<region>
hikey=C#4
hivel=127
lokey=C4
lovel=1
offset=447
sample=3Trombones_marcato_eighth_FF_C4.opus
</region>

<region>
hikey=D#3
hivel=127
lokey=D3
lovel=1
offset=1204
pitch_keycenter=D3
sample=3Trombones_marcato_eighth_FF_D3.opus
</region>

<region>
hikey=D#4
hivel=127
lokey=D4
lovel=1
offset=7085
pitch_keycenter=D4
sample=3Trombones_marcato_eighth_FF_D4.opus
</region>

<region>
hikey=F2
hivel=127
lokey=E2
lovel=1
offset=1155
pitch_keycenter=E2
sample=3Trombones_marcato_eighth_FF_E2.opus
</region>

<region>
hikey=F3
hivel=127
lokey=E3
lovel=1
offset=1262
pitch_keycenter=E3
sample=3Trombones_marcato_eighth_FF_E3.opus
</region>

<region>
hikey=F4
hivel=127
lokey=E4
lovel=1
offset=106
pitch_keycenter=E4
sample=3Trombones_marcato_eighth_FF_E4.opus
</region>

<region>
hikey=G2
hivel=127
lokey=F#2
lovel=1
offset=592
pitch_keycenter=F#2
sample=3Trombones_marcato_eighth_FF_F#2.opus
</region>

<region>
hikey=G3
hivel=127
lokey=F#3
lovel=1
offset=1101
pitch_keycenter=F#3
sample=3Trombones_marcato_eighth_FF_F#3.opus
</region>

<region>
hikey=G4
hivel=127
lokey=F#4
lovel=1
offset=999
pitch_keycenter=F#4
sample=3Trombones_marcato_eighth_FF_F#4.opus
</region>

<region>
hikey=A2
hivel=127
lokey=G#2
lovel=1
offset=887
pitch_keycenter=G#2
sample=3Trombones_marcato_eighth_FF_G#2.opus
</region>

<region>
hikey=A3
hivel=127
lokey=G#3
lovel=1
offset=881
pitch_keycenter=G#3
sample=3Trombones_marcato_eighth_FF_G#3.opus
</region>

<region>
hikey=A4
hivel=127
lokey=G#4
lovel=1
offset=435
pitch_keycenter=G#4
sample=3Trombones_marcato_eighth_FF_G#4.opus
</region>
</group>